<?xml version="1.0" standalone="no"?>
<!DOCTYPE svg PUBLIC "-//W3C//DTD SVG 20010904//EN"
 "http://www.w3.org/TR/2001/REC-SVG-20010904/DTD/svg10.dtd">
<svg version="1.0" xmlns="http://www.w3.org/2000/svg"
 width="1024.000000pt" height="1024.000000pt" viewBox="0 0 1024.000000 1024.000000"
 preserveAspectRatio="xMidYMid meet">

<g transform="translate(0.000000,1024.000000) scale(0.100000,-0.100000)"
fill="#000000" stroke="none">
<path d="M3062 8584 c-361 -56 -662 -206 -920 -458 -246 -239 -403 -538 -479
-907 -15 -77 -17 -236 -21 -1989 -2 -1340 0 -1947 8 -2047 39 -501 290 -949
694 -1239 188 -135 451 -245 682 -284 117 -20 153 -21 2084 -21 1989 0 2010 0
2186 37 148 30 380 124 515 209 364 229 628 595 733 1013 53 212 51 113 50
2227 -2 1775 -3 1980 -18 2070 -70 423 -279 783 -611 1052 -182 147 -443 267
-705 325 l-105 23 -2000 2 c-1702 1 -2014 -1 -2093 -13z m3664 -1601 c67 -36
101 -70 131 -131 l28 -57 3 -1069 c3 -1161 4 -1126 -53 -1228 -22 -40 -579
-605 -712 -723 l-43 -37 0 906 0 906 -132 -128 c-566 -546 -1158 -1112 -1827
-1746 -174 -165 -403 -383 -510 -485 -106 -102 -197 -187 -202 -189 -13 -5
-11 957 1 1038 6 36 26 97 46 137 43 90 72 119 559 568 1029 949 1508 1393
1513 1404 1 3 -457 5 -1018 3 -611 -1 -1020 1 -1020 7 0 17 765 763 810 789
111 66 29 62 1265 59 l1120 -2 41 -22z"/>
</g>
</svg>
